<?xml version="1.0" encoding="utf-8"?>
<!-- Generator: Adobe Illustrator 23.0.4, SVG Export Plug-In . SVG Version: 6.00 Build 0)  -->
<svg version="1.1" id="Capa_1" xmlns="http://www.w3.org/2000/svg" xmlns:xlink="http://www.w3.org/1999/xlink" x="0px" y="0px"
	 viewBox="0 0 100 100" style="enable-background:new 0 0 100 100;" xml:space="preserve">
<style type="text/css">
	.st0{fill:#FFFFFF;}
</style>
<g>
	<path class="st0" d="M78.7,39.9c-12.7,0.4-21.9,6-26.8,17.7c-2.4,5.7-2.6,11.8-0.8,17.8S56.4,86.2,61.7,90c-0.7,0-1,0-1.3,0
		c-16.5,0-33.1,0-49.6,0C4.3,90,0,85.8,0,79.4c0-11.3,0-22.7,0-34c0-4.5,2.3-8.1,6.4-9.7c1.2-0.5,2.6-0.7,4-0.7
		c19.7,0,39.4,0,59.1,0C73.4,35,76.5,36.5,78.7,39.9z"/>
	<path class="st0" d="M55.1,67.5c0.3-12.9,9.8-22.4,22.5-22.4c12.6,0,22.4,9.3,22.4,22.4c0,12.9-9.5,22.4-22.4,22.4
		C64.5,89.9,55.4,80.1,55.1,67.5z M77.5,75C77.5,75,77.5,75.1,77.5,75c-1.6,0-3.3,0-4.9,0c-3.1,0.1-5.4,1.5-6.9,4.3
		c-0.3,0.7-0.3,1.1,0.3,1.6c2.2,1.8,4.7,3.1,7.5,3.7c5.8,1.3,11.1,0,15.7-3.8c0.5-0.4,0.5-0.7,0.3-1.2c-1.2-2.4-2.9-4-5.6-4.3
		C81.8,75,79.7,75,77.5,75z M70.1,62.5c-0.1,4,3.4,7.5,7.5,7.5c4,0,7.5-3.4,7.6-7.4c0.1-4.1-3.4-7.6-7.5-7.6
		C73.5,55,70.1,58.4,70.1,62.5z"/>
	<path class="st0" d="M40,30c-9.4,0-18.8,0-28.3,0c-1.7,0-3.2-0.5-3.9-2.2c-1-2.4,0.4-4.9,3.1-5.2c0.3,0,0.6,0,0.9,0
		c18.8,0,37.5,0,56.3,0c2.3,0,3.8,1,4.2,2.8c0.6,2.4-1.1,4.6-3.7,4.6c-1.9,0-3.8,0-5.7,0C55.3,30,47.7,30,40,30z"/>
	<path class="st0" d="M40,17.4c-7,0-13.9,0-20.9,0c-1.9,0-3.3-0.8-3.9-2.3c-1-2.4,0.5-4.8,3.1-5.1c0.3,0,0.6,0,0.8,0
		c13.8,0,27.7,0,41.5,0c2.2,0,3.7,1,4.1,2.8c0.6,2.5-1.1,4.6-3.8,4.7c-3.5,0-7.1,0-10.6,0C47,17.4,43.5,17.4,40,17.4z"/>
</g>
</svg>
