<?xml version="1.0" encoding="utf-8"?>
<!-- Generator: Adobe Illustrator 23.0.4, SVG Export Plug-In . SVG Version: 6.00 Build 0)  -->
<svg version="1.1" id="Capa_1" xmlns="http://www.w3.org/2000/svg" xmlns:xlink="http://www.w3.org/1999/xlink" x="0px" y="0px"
	 viewBox="0 0 100 100" style="enable-background:new 0 0 100 100;" xml:space="preserve">
<style type="text/css">
	.st0{fill:#FFFFFF;}
</style>
<g>
	<path class="st0" d="M60.6,69.5c-3.3,2.2-6.8,3.8-10.6,4.6c-12.8,2.6-23.7-0.9-32.2-10.8c-8.5-9.8-10.3-24.2-4.2-35.6
		c5.3-9.9,13.5-16,24.8-17.4c16.5-2.1,32.1,8.9,35.7,25c1.9,8.6,0.7,16.8-4,24.3c-0.5,0.8-0.5,1.2,0.2,1.9
		c5.9,5.9,11.7,11.8,17.6,17.6c3.3,3.3,2.4,8.2-1.5,10.2c-2.2,1.1-4.3,0.9-6.3-0.6c-0.8-0.6-1.4-1.3-2.1-2
		c-5.6-5.5-11.1-11.1-16.7-16.6C61.1,69.9,60.9,69.8,60.6,69.5z M38.8,38.7c-0.5,0-0.9,0-1.3,0c-2.5,0-5,0-7.5,0
		c-2.2,0-3.7,1.6-3.7,3.8c0,2.1,1.6,3.7,3.7,3.7c2,0,4.1,0,6.1,0c0.9,0,1.7,0,2.7,0c0,0.5,0,0.9,0,1.3c0,2.5,0,5.1,0,7.6
		c0.1,2,1.5,3.5,3.5,3.6c1.8,0.1,3.3-1.1,3.7-3.1c0.1-0.5,0.1-1,0.1-1.6c0-2.6,0-5.2,0-7.9c0.4,0,0.8,0,1.1,0c2.5,0,5,0,7.5,0
		c1.3,0,2.4-0.4,3.2-1.4c0.9-1.2,1.1-2.6,0.4-4c-0.7-1.4-2-2-3.5-2.1c-2.5-0.1-5.1,0-7.6,0c-0.4,0-0.7,0-1.1,0c0-1.6,0-3,0-4.4
		c0-1.4,0-2.8,0-4.3c-0.1-3-3-4.7-5.6-3.2c-1.3,0.8-1.7,2.1-1.8,3.6C38.8,33.1,38.8,35.8,38.8,38.7z"/>
</g>
</svg>
