<?xml version="1.0" encoding="utf-8"?>
<!-- Generator: Adobe Illustrator 23.0.4, SVG Export Plug-In . SVG Version: 6.00 Build 0)  -->
<svg version="1.1" id="Capa_1" xmlns="http://www.w3.org/2000/svg" xmlns:xlink="http://www.w3.org/1999/xlink" x="0px" y="0px"
	 viewBox="0 0 100 100" style="enable-background:new 0 0 100 100;" xml:space="preserve">
<style type="text/css">
	.st0{fill:#FFFFFF;}
</style>
<g>
	<path class="st0" d="M90.1,50C89.8,72.6,72,90.1,49.8,90C27.5,90,9.7,71.8,9.9,49.7C10.1,27.8,27.8,9.8,50.1,10
		C72.5,10.1,89.9,28,90.1,50z M37.5,50C37.5,50,37.5,50,37.5,50c0,4.4,0,8.8,0,13.2c0,0.6,0,1.3,0.2,1.9c0.7,2.4,3.6,3.3,6,1.9
		c7.3-4.4,14.6-8.9,21.9-13.4c2.7-1.7,2.7-5.1,0-6.8c-7.3-4.5-14.7-9-22-13.4c-0.6-0.4-1.2-0.7-1.9-0.8c-2.2-0.3-4.1,1.3-4.2,3.6
		C37.4,40.7,37.5,45.3,37.5,50z"/>
</g>
</svg>
